<?xml version="1.0" encoding="UTF-8"?>
<svg viewBox="0 0 37 121" version="1.1" xmlns="http://www.w3.org/2000/svg" xmlns:xlink="http://www.w3.org/1999/xlink">
    <!-- Generator: Sketch 50.2 (55047) - http://www.bohemiancoding.com/sketch -->
    <title>logo</title>
    <desc>Created with Sketch.</desc>
    <defs></defs>
    <g id="logo" stroke="none" stroke-width="1" fill="none" fill-rule="evenodd">
        <path d="M-38,64.7668322 L-34,64.7668322 C-33.9726027,66.3352649 -32.9315068,67.3493377 -31.3424658,67.3493377 C-29.6438356,67.3493377 -28.7123288,66.3352649 -28.7123288,64.415287 L-28.7123288,50.9889625 L-24.5753425,50.9889625 L-24.5753425,64.4423289 C-24.5753425,68.647351 -27.0958904,71 -31.2876712,71 C-35.3424658,71 -38,68.5932671 -38,64.7668322 Z M-15.3561644,67.8747241 C-13.5068493,67.8747241 -12.109589,66.7119205 -12.109589,65.1975717 L-12.109589,64.1023731 L-15.1643836,64.2916667 C-16.8767123,64.4133554 -17.7123288,65.0217991 -17.7123288,66.0899558 C-17.7123288,67.1986755 -16.739726,67.8747241 -15.3561644,67.8747241 Z M-16.6712329,70.8358168 C-19.5753425,70.8358168 -21.6164384,69.0780905 -21.6164384,66.3468543 C-21.6164384,63.64266 -19.5205479,62.0742274 -15.7671233,61.8578918 L-12.109589,61.6415563 L-12.109589,60.4246689 C-12.109589,59.1807395 -13.0136986,58.477649 -14.6575342,58.477649 C-16.0958904,58.477649 -17.0547945,58.964404 -17.3835616,59.8567881 L-21.0547945,59.8567881 C-20.7945205,57.0985099 -18.2328767,55.3678256 -14.4383562,55.3678256 C-10.4383562,55.3678256 -8.17808219,57.2337196 -8.17808219,60.4246689 L-8.17808219,70.6059603 L-12.0410959,70.6059603 L-12.0410959,68.6589404 L-12.2876712,68.6589404 C-13.0684932,70.0245585 -14.7123288,70.8358168 -16.6712329,70.8358168 Z M-4.26027397,70.6059603 L-4.26027397,55.6923289 L-0.397260274,55.6923289 L-0.397260274,58.0720199 L-0.150684932,58.0720199 C0.246575342,56.584713 1.80821918,55.4489514 3.7260274,55.4489514 C4.2739726,55.4489514 4.94520548,55.5165563 5.28767123,55.638245 L5.28767123,59.2213024 C4.97260274,59.0996137 4.04109589,58.9779249 3.39726027,58.9779249 C1.21917808,58.9779249 -0.273972603,60.2488962 -0.273972603,62.3446468 L-0.273972603,70.6059603 L-4.26027397,70.6059603 Z M14.3013699,70.9304636 C9.65753425,70.9304636 6.8630137,68.0234547 6.8630137,63.1423841 C6.8630137,58.3153974 9.69863014,55.3678256 14.3013699,55.3678256 C18.9041096,55.3678256 21.739726,58.3018764 21.739726,63.1423841 C21.739726,68.0234547 18.9452055,70.9304636 14.3013699,70.9304636 Z M14.3013699,67.7124724 C16.4246575,67.7124724 17.6438356,66.035872 17.6438356,63.1423841 C17.6438356,60.2759382 16.4109589,58.5858168 14.3013699,58.5858168 C12.1780822,58.5858168 10.9589041,60.2759382 10.9589041,63.1423841 C10.9589041,66.0493929 12.1643836,67.7124724 14.3013699,67.7124724 Z M38.3561644,60.9519868 L34.630137,60.9519868 C34.3561644,59.5322848 33.3287671,58.5993377 31.630137,58.5993377 C29.4794521,58.5993377 28.2739726,60.1812914 28.2739726,63.1153422 C28.2739726,66.0899558 29.4931507,67.6989514 31.630137,67.6989514 C33.260274,67.6989514 34.3287671,66.9147351 34.630137,65.4409492 L38.3561644,65.4409492 C38.0273973,68.7806291 35.5616438,70.9304636 31.630137,70.9304636 C26.9178082,70.9304636 24.2465753,68.1181015 24.2465753,63.1153422 C24.2465753,58.1666667 26.9041096,55.3678256 31.630137,55.3678256 C35.630137,55.3678256 38.0273973,57.558223 38.3561644,60.9519868 Z M41.6027397,70.6059603 L41.6027397,50 L45.5205479,50 L45.5205479,58.1396247 L45.7671233,58.1396247 C46.4657534,56.4359823 48.109589,55.4083885 50.3287671,55.4083885 C53.5753425,55.4083885 55.5068493,57.4230132 55.5068493,61.0060706 L55.5068493,70.6059603 L51.5205479,70.6059603 L51.5205479,61.9390177 C51.5205479,59.8703091 50.5479452,58.8021523 48.739726,58.8021523 C46.739726,58.8021523 45.5890411,60.1136865 45.5890411,62.0471854 L45.5890411,70.6059603 L41.6027397,70.6059603 Z M64.8219178,67.8747241 C66.6712329,67.8747241 68.0684932,66.7119205 68.0684932,65.1975717 L68.0684932,64.1023731 L65.0136986,64.2916667 C63.3013699,64.4133554 62.4657534,65.0217991 62.4657534,66.0899558 C62.4657534,67.1986755 63.4383562,67.8747241 64.8219178,67.8747241 Z M63.5068493,70.8358168 C60.6027397,70.8358168 58.5616438,69.0780905 58.5616438,66.3468543 C58.5616438,63.64266 60.6575342,62.0742274 64.4109589,61.8578918 L68.0684932,61.6415563 L68.0684932,60.4246689 C68.0684932,59.1807395 67.1643836,58.477649 65.5205479,58.477649 C64.0821918,58.477649 63.1232877,58.964404 62.7945205,59.8567881 L59.1232877,59.8567881 C59.3835616,57.0985099 61.9452055,55.3678256 65.739726,55.3678256 C69.739726,55.3678256 72,57.2337196 72,60.4246689 L72,70.6059603 L68.1369863,70.6059603 L68.1369863,68.6589404 L67.890411,68.6589404 C67.109589,70.0245585 65.4657534,70.8358168 63.5068493,70.8358168 Z" id="_Jarocha" fill="#000000" transform="translate(17.000000, 60.500000) rotate(-90.000000) translate(-17.000000, -60.500000) "></path>
    </g>
</svg>